<?xml version="1.0" standalone="no"?>
<!DOCTYPE svg PUBLIC "-//W3C//DTD SVG 20010904//EN"
 "http://www.w3.org/TR/2001/REC-SVG-20010904/DTD/svg10.dtd">
<svg version="1.0" xmlns="http://www.w3.org/2000/svg"
 width="700.000000pt" height="700.000000pt" viewBox="0 0 700.000000 700.000000"
 preserveAspectRatio="xMidYMid meet">
<metadata>
</metadata>
<g transform="translate(0.000000,700.000000) scale(0.100000,-0.100000)"
fill="#000000" stroke="none">
<path d="M3292 6378 c-515 -64 -927 -394 -1041 -832 -12 -44 -26 -130 -32
-191 -31 -317 78 -563 298 -674 69 -34 151 -51 253 -51 210 0 344 73 402 219
32 81 32 271 0 351 -31 79 -73 124 -150 162 -64 32 -71 33 -187 33 -81 0 -131
-5 -155 -14 -72 -30 -118 -70 -166 -147 -55 -88 -64 -85 -64 23 -1 373 196
698 513 848 123 59 212 77 372 78 279 1 462 -68 630 -238 87 -87 139 -168 184
-285 52 -135 66 -225 66 -430 -1 -161 -4 -196 -24 -270 -79 -294 -211 -535
-500 -918 -382 -507 -521 -764 -588 -1082 -25 -123 -25 -432 1 -550 44 -202
112 -366 177 -425 43 -38 72 -44 107 -19 30 21 30 95 -3 203 -71 239 -90 398
-60 516 64 250 249 477 720 885 369 319 479 422 559 527 197 255 309 520 346
817 16 121 7 392 -15 491 -54 242 -154 425 -325 595 -210 210 -490 336 -840
379 -100 13 -375 12 -478 -1z"/>
<path d="M3205 1369 c-122 -42 -210 -121 -268 -239 -30 -62 -32 -71 -32 -180
0 -109 2 -119 32 -183 45 -95 127 -178 222 -225 74 -36 77 -37 191 -37 102 1
121 4 170 27 82 38 135 81 185 149 115 156 114 376 -3 531 -54 72 -148 140
-224 163 -74 22 -200 19 -273 -6z"/>
</g>
</svg>
